<svg xmlns="http://www.w3.org/2000/svg" xmlns:xlink="http://www.w3.org/1999/xlink" id="Layer_2" x="0" y="0" enable-background="new 0 0 1193.7 428.3" version="1.1" viewBox="0 0 1193.7 428.3" xml:space="preserve"><style type="text/css">.st0{clip-path:url(#SVGID_2_)}.st1{fill:#afcede}.st2{clip-path:url(#SVGID_2_);fill:#82b4cd}.st3{fill:#45a600}.st4{fill:#036}.st5{fill:#c33}.st6{fill:#069}.st7{fill:#4690b5}.st8{fill:#ffbf00}.st9{fill:#fff}.st10{fill:#cce0ea}.st11{fill:#ffd966}.st12{clip-path:url(#SVGID_4_)}.st13{fill:#ac0000}.st14{fill:none;stroke:#ccc;stroke-width:36;stroke-miterlimit:10}.st15{fill:#257ca8}.st16{fill:#82b4cd}.st17{fill:#2b6c00}.st18{fill:#458600}.st19{fill:#71bb3c}.st20{fill:#97cd70}</style><g><defs><rect id="SVGID_1_" width="556" height="553.2" x="637.7" y="102.3"/></defs><clipPath id="SVGID_2_"><use overflow="visible" xlink:href="#SVGID_1_"/></clipPath><g class="st0"><path d="M1286,360.1h-203.1c-11.8,0-21.3-9.5-21.3-21.3v-54.5c0-11.8,9.5-21.3,21.3-21.3H1286 c11.8,0,21.3,9.5,21.3,21.3v54.5C1307.3,350.6,1297.7,360.1,1286,360.1z" class="st1"/><path d="M1369.3,388.4h-203.1c-11.8,0-21.3-9.5-21.3-21.3v-12.1c0-11.8,9.5-21.3,21.3-21.3h203.1 c11.8,0,21.3,9.5,21.3,21.3v12.1C1390.6,378.9,1381,388.4,1369.3,388.4z" class="st1"/><path d="M1189.6,329.6H986.5c-11.8,0-21.3-9.5-21.3-21.3v-12.1c0-11.8,9.5-21.3,21.3-21.3h203.1 c11.8,0,21.3,9.5,21.3,21.3v12.1C1210.9,320.1,1201.4,329.6,1189.6,329.6z" class="st1"/></g><path d="M1171.4,305.6c-4.6,0-8.4-3.4-9-7.8c-0.6,4.4-4.4,7.8-9,7.8s-8.4-3.4-9-7.8c-0.6,4.4-4.4,7.8-9,7.8 s-8.4-3.4-9-7.8c-0.6,4.4-4.4,7.8-9,7.8c-4.6,0-8.4-3.4-9-7.8c-0.6,4.4-4.4,7.8-9,7.8s-8.4-3.4-9-7.8c-0.6,4.4-4.4,7.8-9,7.8v3.6 h89.8V305.6z" class="st2"/><path d="M1222.9,343.4c-4.6,0-8.4-3.4-9-7.8c-0.6,4.4-4.4,7.8-9,7.8s-8.4-3.4-9-7.8c-0.6,4.4-4.4,7.8-9,7.8 s-8.4-3.4-9-7.8c-0.6,4.4-4.4,7.8-9,7.8c-4.6,0-8.4-3.4-9-7.8c-0.6,4.4-4.4,7.8-9,7.8s-8.4-3.4-9-7.8c-0.6,4.4-4.4,7.8-9,7.8v3.6 h89.8V343.4z" class="st2"/><path d="M1072.6,295.3c-4.6,0-8.4-3.4-9-7.8c-0.6,4.4-4.4,7.8-9,7.8s-8.4-3.4-9-7.8c-0.6,4.4-4.4,7.8-9,7.8 s-8.4-3.4-9-7.8c-0.6,4.4-4.4,7.8-9,7.8c-4.6,0-8.4-3.4-9-7.8c-0.6,4.4-4.4,7.8-9,7.8c-4.6,0-8.4-3.4-9-7.8c-0.6,4.4-4.4,7.8-9,7.8 v3.6h89.8V295.3z" class="st2"/></g><polygon points="51.6 287.1 80.5 203.9 109.3 287.1" class="st3"/><g><g><rect width="2.8" height="20.4" x="124.9" y="222.6" class="st4"/><path d="M126.3,213.2c-2.7,0-4.9,0.2-4.9,3v9.5h9.9v-9.5C131.2,213.5,129,213.2,126.3,213.2z" class="st5"/></g><g><g><rect width="10.7" height="21.6" x="207.1" y="138.5" class="st6"/><rect width="14.7" height="7.2" x="205.2" y="133.2" class="st4"/></g><polygon points="134.7 166.1 181.9 121.9 229 166.1" class="st4"/><g><rect width="76.3" height="74.9" x="143.7" y="166.1" class="st7"/><polygon points="143.7 166.1 181.9 130.4 220 166.1" class="st7"/></g><g><polygon points="181.9 130.4 143.7 166.1 143.7 241 181.9 241 181.9 130.4" class="st6"/></g><rect width="25.8" height="21.6" x="149.9" y="195.1" class="st4"/><circle cx="181.9" cy="164.4" r="9.2" class="st4"/><g><circle cx="202.2" cy="198.2" r="7.7" class="st4"/><rect width="15.4" height="27.1" x="194.6" y="198.2" class="st4"/></g></g><path d="M230.5,202.4c-14.3,0-27,6.5-35.4,16.7c-1.8-0.9-3.8-1.4-5.9-1.4c-6.6,0-12,4.9-12.9,11.3 c-3.7-1.8-7.8-2.8-12.2-2.8c-12,0-22.2,7.5-26.3,18c-3-1.9-6.5-3.1-10.3-3.1c-6,0-11.4,2.8-14.9,7.2h163.8 C276.4,222.9,255.9,202.4,230.5,202.4z" class="st3"/></g><g><g><rect width="8.2" height="19.9" x="514.7" y="146.1" class="st8"/><rect width="12.2" height="7.7" x="512.7" y="138.8" class="st5"/></g><polygon points="492.5 184.9 550 128.2 607.5 184.9" class="st5"/><g><rect width="92.6" height="65.3" x="503.7" y="184.9" class="st9"/><polygon points="503.7 184.9 550 139.2 596.3 184.9" class="st9"/></g><g><polygon points="503.7 184.9 503.7 250.3 550 250.3 550 139.2" class="st10"/></g><rect width="21.3" height="51.1" x="515.8" y="199.1" class="st5"/><g><rect width="18.5" height="21.2" x="563.7" y="200.3" class="st6"/><rect width="25.8" height="6.6" x="560.1" y="221.6" class="st8"/></g><circle cx="550" cy="168.6" r="9.3" class="st1"/></g><g><polygon points="964.8 227.3 980.6 202.3 909 155.2 837.4 202.3 853.2 227.3" class="st6"/><g><rect width="136.7" height="43.2" x="840.7" y="207" class="st11"/><polygon points="840.7 207 909 162 977.4 207" class="st11"/></g><g><polygon points="840.7 207 840.7 250.3 909 250.3 909 162" class="st8"/></g><g><defs><polygon id="SVGID_3_" points="909 162 840.7 207 840.7 250.3 977.4 250.3 977.4 207"/></defs><clipPath id="SVGID_4_"><use overflow="visible" xlink:href="#SVGID_3_"/></clipPath><g class="st12"><rect width="165.9" height="2.2" x="826.1" y="248.1" class="st8"/><rect width="165.9" height="2.2" x="826.1" y="243.1" class="st8"/><rect width="165.9" height="2.2" x="826.1" y="238.1" class="st8"/><rect width="165.9" height="2.2" x="826.1" y="233.1" class="st8"/><rect width="165.9" height="2.2" x="826.1" y="228.1" class="st8"/><rect width="165.9" height="2.2" x="826.1" y="223.1" class="st8"/><rect width="165.9" height="2.2" x="826.1" y="218.1" class="st8"/><rect width="165.9" height="2.2" x="826.1" y="213.1" class="st8"/><rect width="165.9" height="2.2" x="826.1" y="208.1" class="st8"/><rect width="165.9" height="2.2" x="826.1" y="203.1" class="st8"/><rect width="165.9" height="2.2" x="826.1" y="198.1" class="st8"/><rect width="165.9" height="2.2" x="826.1" y="193.1" class="st8"/><rect width="165.9" height="2.2" x="826.1" y="188.1" class="st8"/><rect width="165.9" height="2.2" x="826.1" y="183.1" class="st8"/><rect width="165.9" height="2.2" x="826.1" y="178.1" class="st8"/><rect width="165.9" height="2.2" x="826.1" y="173.1" class="st8"/><rect width="165.9" height="2.2" x="826.1" y="168.1" class="st8"/><rect width="165.9" height="2.2" x="826.1" y="163.1" class="st8"/></g></g><rect width="25.1" height="37.7" x="862.7" y="208.2" class="st5"/><g><g><rect width="12" height="9.5" x="929.2" y="208.2" class="st4"/><rect width="12" height="9.5" x="944" y="208.2" class="st4"/></g><g><rect width="12" height="9.5" x="929.2" y="220.3" class="st4"/><rect width="12" height="9.5" x="944" y="220.3" class="st4"/></g></g><rect width="34.5" height="4.4" x="858" y="245.9" class="st13"/></g><g><path d="M1018,428.3c0,0,0-11.5,0-25.6s-21.6-25.2-48-24.7l-64.9,1.1c-26.4,0.5-48-16.9-48-38.5s-21.7-39.3-48.1-39.3 H177.7c-26.4,0-48.3,17.5-48.7,38.8c-0.4,21.3-22.3,38.8-48.7,38.8l-80.2,0" class="st14"/></g><g><g><g><rect width="3.5" height="34.7" x="812" y="215.5" class="st4"/><path d="M813.8,203.6c-3.5,0-6.3,0.3-6.3,3.8v12.1h12.5v-12.1C820.1,203.9,817.2,203.6,813.8,203.6z" class="st8"/></g><g><rect width="3.5" height="34.7" x="680.2" y="215.5" class="st4"/><path d="M681.9,203.6c-3.5,0-6.3,0.3-6.3,3.8v12.1h12.5v-12.1C688.2,203.9,685.4,203.6,681.9,203.6z" class="st8"/></g></g><rect width="80.4" height="175.5" x="707.7" y="74.7" class="st11"/><rect width="40.2" height="175.5" x="707.7" y="74.7" class="st8"/><g><g><rect width="10.8" height="31.6" x="719.1" y="133.7" class="st6"/><rect width="10.8" height="31.6" x="732.1" y="133.7" class="st6"/></g><g><rect width="10.8" height="31.6" x="752.8" y="133.7" class="st6"/><rect width="10.8" height="31.6" x="765.8" y="133.7" class="st6"/></g></g><g><g><rect width="10.8" height="31.6" x="719.1" y="85.5" class="st6"/><rect width="10.8" height="31.6" x="732.1" y="85.5" class="st6"/></g><g><rect width="10.8" height="31.6" x="752.8" y="85.5" class="st6"/><rect width="10.8" height="31.6" x="765.8" y="85.5" class="st6"/></g></g><rect width="45.2" height="5.9" x="725.2" y="244.4" class="st5"/><polygon points="765 31.5 762 31.5 733.7 31.5 730.7 31.5 700.4 74.7 733.5 74.7 762.2 74.7 795.3 74.7" class="st5"/><g><rect width="22.7" height="40.3" x="736.5" y="204.1" class="st13"/><circle cx="747.9" cy="204.1" r="11.4" class="st13"/></g></g><g><rect width="7.2" height="17.4" x="309.2" y="157" class="st8" transform="matrix(-1 -4.507695e-11 4.507695e-11 -1 625.4794 331.3689)"/><rect width="94.3" height="58.1" x="362.6" y="190.1" class="st15" transform="matrix(-1 -4.486379e-11 4.486379e-11 -1 819.5839 438.1868)"/><rect width="94.3" height="22" x="362.6" y="169" class="st13" transform="matrix(-1 -4.489266e-11 4.489266e-11 -1 819.5839 359.9441)"/><polygon points="390.9 191 340.6 144.3 290.4 191" class="st5"/><polygon points="381.1 191 340.6 154 300.1 191" class="st16"/><rect width="10.7" height="6.7" x="307.4" y="150.6" transform="matrix(-1 -4.495660e-11 4.495660e-11 -1 625.4794 307.9293)"/><rect width="81" height="57.2" x="300.1" y="191" class="st16" transform="matrix(-1 -4.493573e-11 4.493573e-11 -1 681.2993 439.096)"/><polygon points="300.3 191 300.3 248.1 340.8 248.1 340.8 154" class="st7"/><rect width="18.7" height="44.8" x="351.3" y="203.4" class="st8" transform="matrix(-1 -4.500457e-11 4.500457e-11 -1 721.3048 451.5126)"/><rect width="16.2" height="18.6" x="312.4" y="204.4" class="st6" transform="matrix(-1 -4.497748e-11 4.497748e-11 -1 641.0479 427.4589)"/><rect width="22.6" height="5.8" x="309.2" y="223" transform="matrix(-1 -4.473234e-11 4.473234e-11 -1 641.0479 451.8416)"/><path d="M352.4,182.3c0-6.5-5.3-11.7-11.7-11.7c-6.5,0-11.7,5.3-11.7,11.7H352.4z" class="st6"/><g><rect width="47.5" height="47.1" x="396.6" y="201" transform="matrix(-1 -4.485757e-11 4.485757e-11 -1 840.5887 449.1794)"/><rect width="47.5" height="8.2" x="396.6" y="201" class="st6" transform="matrix(-1 -4.495350e-11 4.495350e-11 -1 840.5887 410.3385)"/></g></g><polygon points="12.7 275.7 33.4 157.5 54.1 275.7" class="st17"/><polygon points="34.7 299.9 55.4 216.8 76.1 299.9" class="st18"/><g><g><rect width="8.7" height="44.5" x="286.7" y="302.1" class="st17"/><circle cx="290.9" cy="281" r="21.5" class="st3"/><path d="M290.9,302.5c11.9,0,21.5-9.6,21.5-21.5s-9.6-21.5-21.5-21.5V302.5z" class="st19"/></g><g><rect width="5.4" height="17.5" x="264.5" y="329.2" class="st17"/><circle cx="267.1" cy="316.1" r="13.3" class="st18"/><path d="M267.1,329.4c7.3,0,13.3-5.9,13.3-13.3s-5.9-13.3-13.3-13.3V329.4z" class="st3"/></g></g><g><g><rect width="7.4" height="18.1" x="1000.7" y="113.9" class="st16"/><rect width="11.1" height="7" x="998.9" y="107.3"/></g><polygon points="980.6 149.2 1032.8 93.3 1084.9 149.2"/><g><rect width="84" height="100.8" x="990.8" y="149.2" class="st5"/><polygon points="990.8 149.2 1032.8 103.3 1074.8 149.2" class="st5"/></g><g><polygon points="990.8 149.2 990.8 250 1032.8 250 1032.8 103.3" class="st13"/></g><rect width="22.5" height="46.4" x="1000.1" y="203.5" class="st6"/><rect width="29.2" height="3.2" x="996.7" y="246.8" class="st4"/><g><rect width="11" height="11" x="1041.9" y="204.6" class="st10"/><rect width="11" height="11" x="1054.1" y="204.6" class="st10"/><g><rect width="11" height="11" x="1041.9" y="216.9" class="st10"/><rect width="11" height="11" x="1054.1" y="216.9" class="st10"/></g></g><g><rect width="11" height="11" x="1041.9" y="159" class="st10"/><rect width="11" height="11" x="1054.1" y="159" class="st10"/><g><rect width="11" height="11" x="1041.9" y="171.3" class="st10"/><rect width="11" height="11" x="1054.1" y="171.3" class="st10"/></g></g><g><rect width="11" height="11" x="1000.1" y="159" class="st10"/><rect width="11" height="11" x="1012.4" y="159" class="st10"/><g><rect width="11" height="11" x="1000.1" y="171.3" class="st10"/><rect width="11" height="11" x="1012.4" y="171.3" class="st10"/></g></g><rect width="11" height="11" x="1027.3" y="126.5" class="st10"/></g><g><g><rect width="7.8" height="40.8" x="1157.3" y="209.5" class="st17"/><circle cx="1161" cy="190.6" r="19.3" class="st3"/><path d="M1161,209.8c10.7,0,19.3-8.6,19.3-19.3s-8.6-19.3-19.3-19.3V209.8z" class="st20"/></g></g><g><polygon points="1078.3 224.5 1076.7 226.7 1076.7 226.7 1076.7 250 1080 250 1080 226.7 1080 226.7" class="st9"/><polygon points="1083.2 224.5 1081.5 226.7 1081.5 226.7 1081.5 250 1084.8 250 1084.8 226.7 1084.8 226.7" class="st9"/><polygon points="1088 224.5 1086.3 226.7 1086.3 226.7 1086.3 250 1089.6 250 1089.6 226.7 1089.6 226.7" class="st9"/><polygon points="1092.8 224.5 1091.1 226.7 1091.2 226.7 1091.2 250 1094.4 250 1094.4 226.7 1094.5 226.7" class="st9"/><polygon points="1097.6 224.5 1096 226.7 1096 226.7 1096 250 1099.3 250 1099.3 226.7 1099.3 226.7" class="st9"/><polygon points="1102.5 224.5 1100.8 226.7 1100.8 226.7 1100.8 250 1104.1 250 1104.1 226.7 1104.1 226.7" class="st9"/><polygon points="1107.3 224.5 1105.6 226.7 1105.6 226.7 1105.6 250 1108.9 250 1108.9 226.7 1108.9 226.7" class="st9"/><polygon points="1112.1 224.5 1110.4 226.7 1110.5 226.7 1110.5 250 1113.7 250 1113.7 226.7 1113.8 226.7" class="st9"/><polygon points="1116.9 224.5 1115.3 226.7 1115.3 226.7 1115.3 250 1118.6 250 1118.6 226.7 1118.6 226.7" class="st9"/><polygon points="1121.8 224.5 1120.1 226.7 1120.1 226.7 1120.1 250 1123.4 250 1123.4 226.7 1123.4 226.7" class="st9"/><polygon points="1126.6 224.5 1124.9 226.7 1124.9 226.7 1124.9 250 1128.2 250 1128.2 226.7 1128.2 226.7" class="st9"/><polygon points="1131.4 224.5 1129.7 226.7 1129.8 226.7 1129.8 250 1133 250 1133 226.7 1133.1 226.7" class="st9"/><polygon points="1136.2 224.5 1134.6 226.7 1134.6 226.7 1134.6 250 1137.9 250 1137.9 226.7 1137.9 226.7" class="st9"/><polygon points="1141.1 224.5 1139.4 226.7 1139.4 226.7 1139.4 250 1142.7 250 1142.7 226.7 1142.7 226.7" class="st9"/><polygon points="1145.9 224.5 1144.2 226.7 1144.2 226.7 1144.2 250 1147.5 250 1147.5 226.7 1147.5 226.7" class="st9"/></g><g><circle cx="370.9" cy="221" r="6.6" class="st18"/><circle cx="370.9" cy="231.9" r="8.2" class="st18"/><path d="M380.3,250.4c0.6-1.3,1-2.8,1-4.3c0-5.7-4.6-10.3-10.3-10.3c-5.7,0-10.3,4.6-10.3,10.3c0,1.6,0.4,3,1,4.3 H380.3z" class="st18"/></g><g><circle cx="470.2" cy="221" r="6.6" class="st18"/><circle cx="470.2" cy="231.9" r="8.2" class="st18"/><path d="M479.5,250.4c0.6-1.3,1-2.8,1-4.3c0-5.7-4.6-10.3-10.3-10.3c-5.7,0-10.3,4.6-10.3,10.3c0,1.6,0.4,3,1,4.3 H479.5z" class="st18"/></g><g><g><rect width="8.7" height="44.5" x="925.4" y="262.8" class="st17"/><circle cx="929.6" cy="241.7" r="21.5" class="st3"/><path d="M929.6,263.2c11.9,0,21.5-9.6,21.5-21.5s-9.6-21.5-21.5-21.5V263.2z" class="st19"/></g><g><rect width="5.4" height="17.5" x="903.2" y="289.8" class="st17"/><circle cx="905.8" cy="276.8" r="13.3" class="st18"/><path d="M905.8,290.1c7.3,0,13.3-5.9,13.3-13.3s-5.9-13.3-13.3-13.3V290.1z" class="st3"/></g></g></svg>