<svg xmlns="http://www.w3.org/2000/svg" xmlns:xlink="http://www.w3.org/1999/xlink" id="Layer_1" x="0" y="0" enable-background="new 0 0 135 135" version="1.1" viewBox="0 0 135 135" xml:space="preserve"><style type="text/css">.st0,.st1{fill:none;stroke:#fff;stroke-width:1.5}.st1{stroke-linecap:round;stroke-linejoin:round;stroke-miterlimit:10}.st2{clip-path:url(#SVGID_2_)}.st3{clip-path:url(#SVGID_4_);fill:#0071bc}</style><g><path d="M62.8,74.6c1.5,4,5.2,6.8,9.4,6.8h3.2l8.8,7.8v-8c4.8-0.9,8.4-5.5,8.4-11c0-6.2-4.6-11.2-10.2-11.2 c-2.6,0,0,0-2.7,0" class="st0"/><line x1="75.8" x2="81.3" y1="68.9" y2="74.4" class="st0"/><line x1="73.1" x2="81.3" y1="74.4" y2="66.1" class="st0"/><path d="M51.7,69.3c-5-1-8.5-5.9-8.5-11.9c0-6.7,4.8-12.1,10.7-12.1h10.8c5.9,0,10.7,5.4,10.7,12.1 c0,6.7-4.8,11.9-10.7,11.9h-3.4l-9.6,8.6V69.3z" class="st0"/><path d="M57.4,61.6" class="st1"/><polyline points="53.5 57.9 57.4 62.2 65.8 53" class="st0"/></g><g><g><defs><circle id="SVGID_1_" cx="67.9" cy="67.3" r="65"/></defs><clipPath id="SVGID_2_"><use overflow="visible" xlink:href="#SVGID_1_"/></clipPath><g class="st2"><defs><rect id="SVGID_3_" width="130" height="130" x="2.9" y="2.3"/></defs><clipPath id="SVGID_4_"><use overflow="visible" xlink:href="#SVGID_3_"/></clipPath><rect width="140" height="140" x="-2.1" y="-2.7" class="st3"/></g></g><g><path d="M68.4,69.3c-2.8-1.1-5.8-2.4-6.1-3.2v-0.9c0.6-0.6,1-1.4,1.3-2.4c0.6-0.4,0.8-1.4,0.3-2v-1.9 c0-2-1.1-3.4-3.7-3.4c-2.5,0-3.7,1.4-3.7,3.4v1.9c-0.5,0.7-0.4,1.6,0.3,2c0.3,1,0.7,1.8,1.3,2.4v0.9c-0.3,0.8-3.3,2.2-6.1,3.2 c-0.2,0.1-0.4,0.3-0.4,0.6v2.2c0,0.3,0.3,0.6,0.6,0.6h15.9c0.3,0,0.6-0.3,0.6-0.6v-2.2C68.8,69.7,68.6,69.4,68.4,69.3z" class="st0"/><path d="M45.2,47.7v39.2h9.4v-3.1c0-1.7,1.4-3.1,3.1-3.1c1.7,0,3.1,1.4,3.1,3.1v3.1H75v-3.1c0-1.7,1.4-3.1,3.1-3.1 c1.7,0,3.1,1.4,3.1,3.1v3.1h9.4V47.7H45.2z" class="st0"/><line x1="73.4" x2="84.4" y1="60.3" y2="60.3" class="st0"/><line x1="73.4" x2="84.4" y1="65" y2="65" class="st0"/></g></g></svg>